<svg xmlns="http://www.w3.org/2000/svg" viewBox="0 0 146.22 181.42"><defs><style>.cls-1{fill:#fff;}</style></defs><g id="Слой_2" data-name="Слой 2"><g id="Блютуз_реклама" data-name="Блютуз реклама"><g id="adverstiting"><path id="Блютуз" class="cls-1" d="M35.9,181.42v-75.5l-27,27L0,124,33.29,90.71,0,57.42,8.91,48.5l27,27V0l53,53L51.12,90.71l37.74,37.75Zm12.61-75.5V151L71,128.46Zm0-75.49V75.5L71,53Z"/><path id="Излучение_1" data-name="Излучение 1" class="cls-1" d="M80.93,83.75a13.9,13.9,0,0,1-2.22,16.82l9.91,9.91a28,28,0,0,0,4.44-33.73,28.38,28.38,0,0,0-4.46-5.81l-9.91,9.91A13.86,13.86,0,0,1,80.93,83.75Z"/><path id="Излучение_2" data-name="Излучение 2" class="cls-1" d="M102.34,71.39a38.72,38.72,0,0,1-6.15,46.67l9.9,9.9a52.66,52.66,0,0,0,0-74.5l-9.9,9.9A38.92,38.92,0,0,1,102.34,71.39Z"/><path id="Излучение_3" data-name="Излучение 3" class="cls-1" d="M135.88,52A77.85,77.85,0,0,0,123.58,36l-9.9,9.9a63.45,63.45,0,0,1,0,89.66l9.9,9.9A77.5,77.5,0,0,0,135.88,52Z"/></g></g></g></svg>