<svg xmlns="http://www.w3.org/2000/svg" viewBox="0 0 181.47 181.42"><defs><style>.cls-1{fill:#009ee2;}.cls-2,.cls-3{fill:none;stroke:#fff;stroke-miterlimit:10;}.cls-2{stroke-width:14px;}.cls-3{stroke-linecap:square;stroke-width:4px;}.cls-4{fill:#fff;}</style></defs><g id="Слой_2" data-name="Слой 2"><g id="Пакман"><g id="puckman"><path id="Пакман-2" data-name="Пакман" class="cls-1" d="M90.71,90.71,149,160.19a90.69,90.69,0,0,1-58.3,21.23C41,181.42,0,140.47,0,90.71S41,0,90.71,0A90.76,90.76,0,0,1,160.2,32.4Z"/><polyline id="Блютуз" class="cls-2" points="30.27 59.53 92.63 121.89 61.45 153.07 61.45 28.35 92.63 59.53 30.27 121.89"/><circle id="еда" class="cls-1" cx="154.23" cy="90.71" r="27.25"/><polyline id="блютуз_еда" data-name="блютуз еда" class="cls-3" points="145.72 82.2 162.73 99.21 154.23 107.72 154.23 73.7 162.73 82.2 145.72 99.21"/><circle id="глаз" class="cls-4" cx="115.52" cy="30.43" r="16.51"/><circle id="зрачок" class="cls-1" cx="126.13" cy="40.55" r="6.37"/></g></g></g></svg>