<svg xmlns="http://www.w3.org/2000/svg" viewBox="0 0 173.73 181.42"><defs><style>.cls-1{fill:#fff;}</style></defs><g id="Слой_2" data-name="Слой 2"><g id="Сканировать"><g id="scan"><circle id="голова" class="cls-1" cx="129.7" cy="16.28" r="16.28"/><path id="туловище" class="cls-1" d="M98.17,96c7.51,5.47,14.57,10.6,21.61,15.76,6.56,4.8,7.57,8.53,4.35,15.93-6.79,15.6-13.53,31.22-20.43,46.77-3,6.72-10.53,8.92-16.12,5-4.5-3.19-5.71-8.48-3.09-14.35,5.22-11.68,10.51-23.33,15.77-35,.58-1.28,1.12-2.56,1.86-4.24L82.84,111.57c-3.51-2.6-7-5.17-10.54-7.77-6-4.45-8-9.92-5.56-17a52.27,52.27,0,0,1,5.4-10.91c7.17-11.28,14.58-22.41,22.15-34C88.48,39.81,83,37.67,77.41,36c-1.35-.41-3.28.34-4.7,1C63.78,41.48,55,46.15,46,50.65c-5.27,2.65-10,1.48-12.54-2.85-2.4-4.1-1.62-9.15,2.54-11.49C47.56,29.83,59.19,23.52,71,17.6c2.18-1.09,5.63-.63,8.17.16,9.25,2.88,18.68,5.53,27.44,9.57,7,3.26,13.36,8.2,19.67,12.83,1.72,1.26,2.55,4,3.31,6.21,2.45,7.19,4.52,14.5,7.1,21.63a7.08,7.08,0,0,0,4.07,3.91c8.26,2.29,16.64,4.17,25,6.17,6.44,1.55,9,5.37,7.59,11.27s-5.36,8.18-11.86,6.58c-10.38-2.56-20.72-5.21-31.09-7.82a10.07,10.07,0,0,1-7.85-7.4c-1.46-5-3.2-9.89-5.13-15.81Z"/><path id="нога" class="cls-1" d="M57.57,101.1l16.12,14.43c-3.58,5.14-7.12,11.08-11.59,16.22-1.82,2.09-5.63,3.34-8.58,3.41-13.94.35-27.89.26-41.84.11C4.43,135.19.07,131,0,124.66c-.07-6,4.67-10.36,11.84-10.44q16.26-.19,32.55,0c2.7,0,4.45-.74,5.93-3C52.7,107.57,55.39,104.12,57.57,101.1Z"/></g></g></g></svg>