<svg xmlns="http://www.w3.org/2000/svg" viewBox="0 0 62.41 181.42"><defs><style>.cls-1{fill:#fff;}</style></defs><g id="Слой_2" data-name="Слой 2"><g id="остановить"><g id="stop"><path id="туловище" class="cls-1" d="M29.73,102.2v2q0,33.14,0,66.27a13,13,0,0,1-1.31,6.67,7.31,7.31,0,0,1-6.56,4.13,6.89,6.89,0,0,1-6.74-4,12.5,12.5,0,0,1-1.35-5.19c-.08-25,0-50,0-75q0-21.58,0-43.17c0-.28,0-.56-.07-1l-1.27-.09a4.92,4.92,0,0,0-.14.77q0,4.82,0,9.61V97.94c0,3.92-2.41,6.52-6,6.55S0,102,0,98.07q0-27.9,0-55.79c0-3.29,1.1-6.23,4-8A9.91,9.91,0,0,1,8.86,33c14.92-.1,29.84-.06,44.76-.05A8.37,8.37,0,0,1,62.2,40.2a15.9,15.9,0,0,1,.2,2.57q0,23.39,0,46.76c0,2.82,0,5.64,0,8.46,0,3.93-2.46,6.51-6.09,6.5s-6.12-2.61-6.12-6.62V52.94h-1.5v118.8c0,3.39-1,6.38-3.87,8.37-4.56,3.16-10.57.31-11.81-5.54a16.21,16.21,0,0,1-.31-3.41q0-33.36,0-66.7V102.2Z"/><path id="голова" class="cls-1" d="M45.86,14.68a14.65,14.65,0,0,1-29.3,0,14.65,14.65,0,1,1,29.3,0Z"/></g></g></g></svg>