<svg xmlns="http://www.w3.org/2000/svg" viewBox="0 0 180.96 181.42"><defs><style>.cls-1{fill:#fff;}</style></defs><g id="Слой_2" data-name="Слой 2"><g id="не_сопряжено" data-name="не сопряжено"><g id="unpaired"><path id="нижнее_звено" data-name="нижнее звено" class="cls-1" d="M166.72,176.25a31.43,31.43,0,0,0,9-43.48l-18.37-27.89a31.17,31.17,0,0,0-6.91-7.49,34.6,34.6,0,0,1-2.83,25.42l13.07,19.85a13.4,13.4,0,1,1-22.38,14.74L119.9,129.51A13.42,13.42,0,0,1,123.72,111a13.24,13.24,0,0,1,3.55-1.64,10.41,10.41,0,0,0-1.33-8.45l-5.45-8.27a31.4,31.4,0,0,0-15.62,46.81l18.36,27.89A31.43,31.43,0,0,0,166.72,176.25Z"/><path id="верхнее_звено" data-name="верхнее звено" class="cls-1" d="M117.21,5.92A31.43,31.43,0,0,0,105.69,48.8l16.68,28.93a30.92,30.92,0,0,0,6.46,7.88,34.57,34.57,0,0,1,4.32-25.2l-11.87-20.6a13.4,13.4,0,0,1,23.21-13.38l16.68,28.93a13.37,13.37,0,0,1-8.55,19.73,10.36,10.36,0,0,0,.83,8.51l5,8.57a31.36,31.36,0,0,0,18.37-45.8L160.09,17.44A31.44,31.44,0,0,0,117.21,5.92Z"/><path id="блютуз" class="cls-1" d="M34.74,181.42V107.8L10,132.52l-10-10,31.8-31.8L0,58.91l10-10L34.74,73.62V0L88.63,53.9,51.83,90.71l36.8,36.81ZM48.89,107.8v39.44l19.72-19.72Zm0-73.62V73.62L68.61,53.9Z"/></g></g></g></svg>